<svg width="1280" height="720" xmlns="http://www.w3.org/2000/svg" xmlns:xlink="http://www.w3.org/1999/xlink" overflow="hidden"><defs><clipPath id="clip0"><rect x="0" y="0" width="1280" height="720"/></clipPath><linearGradient x1="947.656" y1="906.944" x2="332.344" y2="-186.944" gradientUnits="userSpaceOnUse" spreadMethod="reflect" id="fill1"><stop offset="0" stop-color="#2E4F4F"/><stop offset="0.2" stop-color="#CBE4DE"/><stop offset="0.84" stop-color="#0E8388"/><stop offset="1" stop-color="#0E8388"/></linearGradient></defs><g clip-path="url(#clip0)"><rect x="0" y="0" width="1280" height="720" fill="url(#fill1)"/><path d="M248.5 20.311C248.5 14.3403 253.34 9.50005 259.311 9.50005L422.689 9.50005C428.66 9.50005 433.5 14.3403 433.5 20.311L433.5 97.6891C433.5 103.66 428.66 108.5 422.689 108.5L259.311 108.5C253.34 108.5 248.5 103.66 248.5 97.6891Z" stroke="#2F528F" stroke-width="1.33333" stroke-miterlimit="8" fill="#2C3333" fill-rule="evenodd"/><path d="M632.5 20.311C632.5 14.3403 637.34 9.50005 643.311 9.50005L1240.69 9.50005C1246.66 9.50005 1251.5 14.3403 1251.5 20.311L1251.5 97.6891C1251.5 103.66 1246.66 108.5 1240.69 108.5L643.311 108.5C637.34 108.5 632.5 103.66 632.5 97.6891Z" stroke="#2F528F" stroke-width="1.33333" stroke-miterlimit="8" fill="#2C3333" fill-rule="evenodd"/><path d="M7.50005 141.352C7.50005 133.149 14.1493 126.5 22.3515 126.5L128.649 126.5C136.851 126.5 143.5 133.149 143.5 141.352L143.5 673.649C143.5 681.851 136.851 688.5 128.649 688.5L22.3515 688.5C14.1493 688.5 7.50005 681.851 7.50005 673.649Z" stroke="#2F528F" stroke-width="1.33333" stroke-miterlimit="8" fill="#2C3333" fill-rule="evenodd"/><path d="M155.5 148.648C155.5 134.759 166.759 123.5 180.648 123.5L856.352 123.5C870.241 123.5 881.5 134.759 881.5 148.648L881.5 368.352C881.5 382.241 870.241 393.5 856.352 393.5L180.648 393.5C166.759 393.5 155.5 382.241 155.5 368.352Z" stroke="#2F528F" stroke-width="1.33333" stroke-miterlimit="8" fill="#2C3333" fill-rule="evenodd"/><path d="M889.5 141.058C889.5 131.361 897.361 123.5 907.058 123.5L1233.94 123.5C1243.64 123.5 1251.5 131.361 1251.5 141.058L1251.5 375.942C1251.5 385.639 1243.64 393.5 1233.94 393.5L907.058 393.5C897.361 393.5 889.5 385.639 889.5 375.942Z" stroke="#2F528F" stroke-width="1.33333" stroke-miterlimit="8" fill="#2C3333" fill-rule="evenodd"/><path d="M155.5 419.513C155.5 412.878 160.878 407.5 167.513 407.5L734.487 407.5C741.122 407.5 746.5 412.878 746.5 419.513L746.5 676.487C746.5 683.122 741.122 688.5 734.487 688.5L167.513 688.5C160.878 688.5 155.5 683.122 155.5 676.487Z" stroke="#2F528F" stroke-width="1.33333" stroke-miterlimit="8" fill="#2C3333" fill-rule="evenodd"/><path d="M764.5 419.513C764.5 412.878 769.878 407.5 776.513 407.5L1239.49 407.5C1246.12 407.5 1251.5 412.878 1251.5 419.513L1251.5 676.487C1251.5 683.122 1246.12 688.5 1239.49 688.5L776.513 688.5C769.878 688.5 764.5 683.122 764.5 676.487Z" stroke="#2F528F" stroke-width="1.33333" stroke-miterlimit="8" fill="#2C3333" fill-rule="evenodd"/></g></svg>