<svg width="1280" height="720" xmlns="http://www.w3.org/2000/svg" xmlns:xlink="http://www.w3.org/1999/xlink" overflow="hidden"><defs><clipPath id="clip0"><rect x="0" y="0" width="1280" height="720"/></clipPath><linearGradient x1="947.656" y1="906.944" x2="332.344" y2="-186.944" gradientUnits="userSpaceOnUse" spreadMethod="reflect" id="fill1"><stop offset="0" stop-color="#2E4F4F"/><stop offset="0.2" stop-color="#CBE4DE"/><stop offset="0.84" stop-color="#0E8388"/><stop offset="1" stop-color="#0E8388"/></linearGradient></defs><g clip-path="url(#clip0)"><rect x="0" y="0" width="1280" height="720" fill="url(#fill1)"/><path d="M774.5 21.2582C774.5 15.8689 778.869 11.5001 784.258 11.5001L1243.74 11.5001C1249.13 11.5001 1253.5 15.8689 1253.5 21.2582L1253.5 104.742C1253.5 110.131 1249.13 114.5 1243.74 114.5L784.258 114.5C778.869 114.5 774.5 110.131 774.5 104.742Z" stroke="#2F528F" stroke-width="1.33333" stroke-miterlimit="8" fill="#2C3333" fill-rule="evenodd"/><path d="M12.5001 145.048C12.5001 137.566 18.5657 131.5 26.0481 131.5L141.952 131.5C149.434 131.5 155.5 137.566 155.5 145.048L155.5 677.952C155.5 685.434 149.434 691.5 141.952 691.5L26.0481 691.5C18.5657 691.5 12.5001 685.434 12.5001 677.952Z" stroke="#2F528F" stroke-width="1.33333" stroke-miterlimit="8" fill="#2C3333" fill-rule="evenodd"/><path d="M169.5 147.687C169.5 138.747 176.747 131.5 185.687 131.5L506.314 131.5C515.253 131.5 522.5 138.747 522.5 147.687L522.5 385.314C522.5 394.253 515.253 401.5 506.314 401.5L185.687 401.5C176.747 401.5 169.5 394.253 169.5 385.314Z" stroke="#2F528F" stroke-width="1.33333" stroke-miterlimit="8" fill="#2C3333" fill-rule="evenodd"/><path d="M169.5 439.687C169.5 430.747 176.747 423.5 185.687 423.5L506.314 423.5C515.253 423.5 522.5 430.747 522.5 439.687L522.5 677.314C522.5 686.253 515.253 693.5 506.314 693.5L185.687 693.5C176.747 693.5 169.5 686.253 169.5 677.314Z" stroke="#2F528F" stroke-width="1.33333" stroke-miterlimit="8" fill="#2C3333" fill-rule="evenodd"/><path d="M536.5 147.686C536.5 138.747 543.747 131.5 552.686 131.5L868.314 131.5C877.253 131.5 884.5 138.747 884.5 147.686L884.5 385.314C884.5 394.253 877.253 401.5 868.314 401.5L552.686 401.5C543.747 401.5 536.5 394.253 536.5 385.314Z" stroke="#2F528F" stroke-width="1.33333" stroke-miterlimit="8" fill="#2C3333" fill-rule="evenodd"/><path d="M898.5 147.687C898.5 138.747 905.747 131.5 914.687 131.5L1237.31 131.5C1246.25 131.5 1253.5 138.747 1253.5 147.687L1253.5 385.313C1253.5 394.253 1246.25 401.5 1237.31 401.5L914.687 401.5C905.747 401.5 898.5 394.253 898.5 385.313Z" stroke="#2F528F" stroke-width="1.33333" stroke-miterlimit="8" fill="#2C3333" fill-rule="evenodd"/><path d="M536.5 439.687C536.5 430.747 543.747 423.5 552.687 423.5L1237.31 423.5C1246.25 423.5 1253.5 430.747 1253.5 439.687L1253.5 677.313C1253.5 686.253 1246.25 693.5 1237.31 693.5L552.687 693.5C543.747 693.5 536.5 686.253 536.5 677.313Z" stroke="#2F528F" stroke-width="1.33333" stroke-miterlimit="8" fill="#2C3333" fill-rule="evenodd"/></g></svg>