<svg width="1280" height="720" xmlns="http://www.w3.org/2000/svg" xmlns:xlink="http://www.w3.org/1999/xlink" overflow="hidden"><defs><clipPath id="clip0"><rect x="0" y="0" width="1280" height="720"/></clipPath><radialGradient cx="12191999" cy="6858000" r="13988461" fx="12192000" fy="6858000" gradientUnits="userSpaceOnUse" spreadMethod="pad" id="fill1" gradientTransform="scale(0.000104987 0.000104987)"><stop offset="0" stop-color="#BEDCDA"/><stop offset="0.2" stop-color="#BEDCDA"/><stop offset="0.53" stop-color="#F1E0BC"/><stop offset="0.76" stop-color="#EC7B8D"/><stop offset="1" stop-color="#EC7B8D"/></radialGradient></defs><g clip-path="url(#clip0)"><rect x="0" y="0" width="1280" height="720" fill="url(#fill1)"/><path d="M13.5001 19.6209C13.5001 13.479 18.479 8.50005 24.6209 8.50005L200.379 8.50005C206.521 8.50005 211.5 13.479 211.5 19.6209L211.5 113.379C211.5 119.521 206.521 124.5 200.379 124.5L24.6209 124.5C18.479 124.5 13.5001 119.521 13.5001 113.379Z" stroke="#2F528F" stroke-width="1.33333" stroke-miterlimit="8" fill="#4D455D" fill-rule="evenodd"/><path d="M238.5 19.621C238.5 13.4791 243.479 8.50005 249.621 8.50005L717.379 8.50005C723.521 8.50005 728.5 13.4791 728.5 19.621L728.5 113.379C728.5 119.521 723.521 124.5 717.379 124.5L249.621 124.5C243.479 124.5 238.5 119.521 238.5 113.379Z" stroke="#2F528F" stroke-width="1.33333" stroke-miterlimit="8" fill="#4D455D" fill-rule="evenodd"/><path d="M740.5 19.621C740.5 13.4791 745.479 8.50005 751.621 8.50005L1256.38 8.50005C1262.52 8.50005 1267.5 13.4791 1267.5 19.621L1267.5 113.379C1267.5 119.521 1262.52 124.5 1256.38 124.5L751.621 124.5C745.479 124.5 740.5 119.521 740.5 113.379Z" stroke="#2F528F" stroke-width="1.33333" stroke-miterlimit="8" fill="#4D455D" fill-rule="evenodd"/><path d="M13.5001 173.253C13.5001 165.105 20.1053 158.5 28.2533 158.5L278.747 158.5C286.895 158.5 293.5 165.105 293.5 173.253L293.5 369.747C293.5 377.895 286.895 384.5 278.747 384.5L28.2533 384.5C20.1053 384.5 13.5001 377.895 13.5001 369.747Z" stroke="#2F528F" stroke-width="1.33333" stroke-miterlimit="8" fill="#4D455D" fill-rule="evenodd"/><path d="M306.5 173.253C306.5 165.105 313.105 158.5 321.253 158.5L781.747 158.5C789.895 158.5 796.5 165.105 796.5 173.253L796.5 369.747C796.5 377.895 789.895 384.5 781.747 384.5L321.253 384.5C313.105 384.5 306.5 377.895 306.5 369.747Z" stroke="#2F528F" stroke-width="1.33333" stroke-miterlimit="8" fill="#4D455D" fill-rule="evenodd"/><path d="M808.5 172.266C808.5 164.663 814.663 158.5 822.266 158.5L1253.73 158.5C1261.34 158.5 1267.5 164.663 1267.5 172.266L1267.5 370.735C1267.5 378.337 1261.34 384.5 1253.73 384.5L822.266 384.5C814.663 384.5 808.5 378.337 808.5 370.735Z" stroke="#2F528F" stroke-width="1.33333" stroke-miterlimit="8" fill="#4D455D" fill-rule="evenodd"/><path d="M808.5 422.388C808.5 413.061 816.061 405.5 825.388 405.5L1250.61 405.5C1259.94 405.5 1267.5 413.061 1267.5 422.388L1267.5 695.612C1267.5 704.939 1259.94 712.5 1250.61 712.5L825.388 712.5C816.061 712.5 808.5 704.939 808.5 695.612Z" stroke="#2F528F" stroke-width="1.33333" stroke-miterlimit="8" fill="#4D455D" fill-rule="evenodd"/><path d="M13.5001 425.541C13.5001 414.473 22.4726 405.5 33.5409 405.5L776.459 405.5C787.527 405.5 796.5 414.473 796.5 425.541L796.5 692.459C796.5 703.527 787.527 712.5 776.459 712.5L33.5409 712.5C22.4726 712.5 13.5001 703.527 13.5001 692.459Z" stroke="#2F528F" stroke-width="1.33333" stroke-miterlimit="8" fill="#4D455D" fill-rule="evenodd"/></g></svg>